<svg width="46" height="42" viewBox="0 0 46 42" fill="none" xmlns="http://www.w3.org/2000/svg">
<path d="M22.1097 0L11.1436 42H0L5.72847 20.0667C5.7326 20.0597 5.73443 20.0512 5.73369 20.0426L10.9661 0H22.1097Z" fill="url(#paint0_linear_3_85)"/>
<path d="M34.9035 0L23.9374 42H12.7938L18.4074 20.4997L23.7598 0H34.9035Z" fill="url(#paint1_linear_3_85)"/>
<path d="M46 42H34.8616L32.8825 34.4276V34.4215L30.1827 24.0821L35.7546 2.7485L46 42Z" fill="url(#paint2_linear_3_85)"/>
<g style="mix-blend-mode:screen" opacity="0.4">
<g style="mix-blend-mode:screen" opacity="0.4">
<path d="M20.6945 1.23529L1.4151 40.7647L11.7389 1.23529H20.6945Z" fill="white"/>
</g>
</g>
<g style="mix-blend-mode:screen" opacity="0.4">
<g style="mix-blend-mode:screen" opacity="0.4">
<path d="M33.4883 1.23529L14.2089 40.7647L24.5327 1.23529H33.4883Z" fill="white"/>
</g>
</g>
<g style="mix-blend-mode:multiply" opacity="0.3">
<g style="mix-blend-mode:multiply" opacity="0.3">
<path d="M35.7546 2.7485L32.8826 34.4246L30.1818 24.0821L35.7546 2.7485Z" fill="black"/>
</g>
</g>
<g style="mix-blend-mode:multiply" opacity="0.3">
<g style="mix-blend-mode:multiply" opacity="0.3">
<path d="M34.9035 0L23.9374 42H12.7938C14.6528 41.8703 16.5066 41.8147 18.3656 41.7159L21.1489 41.6171L23.6397 41.5485C24.4648 38.1329 25.316 34.7237 26.1933 31.3209L27.551 26.0709L28.94 20.8271C29.8852 17.3374 30.8408 13.8538 31.8277 10.3765C32.3291 8.64706 32.8199 6.90529 33.3369 5.18206C33.8539 3.45882 34.3604 1.71644 34.9035 0Z" fill="black"/>
</g>
</g>
<g style="mix-blend-mode:multiply" opacity="0.3">
<g style="mix-blend-mode:multiply" opacity="0.3">
<path d="M22.1097 0L11.1436 42H0C1.85901 41.8703 3.7128 41.8147 5.57181 41.7159L8.35511 41.6171L10.846 41.5485C11.671 38.1329 12.5222 34.7237 13.3995 31.3209L14.7572 26.0709L16.1462 20.8271C17.0914 17.3374 18.047 13.8538 19.034 10.3765C19.5353 8.64706 20.0262 6.90529 20.5431 5.18206C21.0601 3.45882 21.5666 1.71644 22.1097 0Z" fill="black"/>
</g>
</g>
<g style="mix-blend-mode:multiply" opacity="0.3">
<g style="mix-blend-mode:multiply" opacity="0.3">
<path d="M19.0603 0C17.7131 0.166147 16.3658 0.271765 15.0133 0.352059C14.3397 0.395294 13.6661 0.438529 12.9925 0.463235C12.4337 0.487941 11.875 0.512646 11.3162 0.524999C11.1439 1.24765 10.9716 1.96474 10.794 2.68676L10.1517 5.20121C9.94283 6.03441 9.70785 6.86885 9.48853 7.70268C9.2692 8.5365 9.03944 9.37032 8.80445 10.198C8.56946 11.0256 8.3397 11.8656 8.08904 12.6871C7.83839 13.5086 7.6034 14.3424 7.34753 15.1639C6.841 16.8068 6.31358 18.4312 5.73395 20.0433L10.9663 0.000617308L19.0603 0Z" fill="black"/>
</g>
</g>
<g style="mix-blend-mode:multiply" opacity="0.3">
<g style="mix-blend-mode:multiply" opacity="0.3">
<path d="M32.0314 0C30.6528 0.166147 29.2742 0.271765 27.8956 0.352059C27.2063 0.400647 26.517 0.437706 25.8277 0.463235C25.2533 0.487941 24.6841 0.512646 24.1097 0.530558L23.5719 2.73618L22.9191 5.30559L22.2403 7.86203C22.0157 8.72118 21.7807 9.56673 21.5405 10.4129C21.3003 11.2591 21.0653 12.1114 20.8094 12.9576C20.5536 13.8038 20.3186 14.6506 20.0523 15.4844C19.5405 17.1706 18.9974 18.8444 18.4073 20.4997L23.7598 0H32.0314Z" fill="black"/>
</g>
</g>
<g style="mix-blend-mode:multiply" opacity="0.3">
<g style="mix-blend-mode:multiply" opacity="0.3">
<path d="M40.4282 41.709C42.1045 41.6417 43.7755 41.5856 45.4517 41.5429C45.0496 40.1162 44.658 38.6894 44.2664 37.2565C43.8173 35.632 43.3786 34.0012 42.9504 32.3641C42.0784 29.1035 41.2376 25.8238 40.4021 22.5503L39.175 17.6208L37.9844 12.6796C37.5979 11.0305 37.2063 9.38206 36.846 7.72677C36.4752 6.06527 36.094 4.41553 35.7546 2.7485L46 42H34.8616C36.7154 41.8604 38.5744 41.8024 40.4282 41.709Z" fill="black"/>
</g>
</g>
<defs>
<linearGradient id="paint0_linear_3_85" x1="11.0549" y1="0.462" x2="11.0549" y2="42.546" gradientUnits="userSpaceOnUse">
<stop stop-color="#0899A0"/>
<stop offset="0.238" stop-color="#00EFFC"/>
<stop offset="0.44" stop-color="#00E5F4"/>
<stop offset="0.629" stop-color="#00D3E7"/>
<stop offset="0.81" stop-color="#00BAD4"/>
<stop offset="0.983" stop-color="#009BBC"/>
<stop offset="1" stop-color="#0098BA"/>
</linearGradient>
<linearGradient id="paint1_linear_3_85" x1="23.8486" y1="0.462" x2="23.8486" y2="42.546" gradientUnits="userSpaceOnUse">
<stop stop-color="#0899A0"/>
<stop offset="0.238" stop-color="#00EFFC"/>
<stop offset="0.44" stop-color="#00E5F4"/>
<stop offset="0.629" stop-color="#00D3E7"/>
<stop offset="0.81" stop-color="#00BAD4"/>
<stop offset="0.983" stop-color="#009BBC"/>
<stop offset="1" stop-color="#0098BA"/>
</linearGradient>
<linearGradient id="paint2_linear_3_85" x1="41.84" y1="42.5102" x2="23.793" y2="33.4748" gradientUnits="userSpaceOnUse">
<stop stop-color="#30659E"/>
<stop offset="0.247" stop-color="#355881"/>
<stop offset="0.75" stop-color="#1F324E"/>
<stop offset="1" stop-color="#131D32"/>
</linearGradient>
</defs>
</svg>
